HIERARCHY
ROOT Hips
{
	OFFSET 0.00 0.00 0.00
	CHANNELS 6 Xposition Yposition Zposition Xrotation Yrotation Zrotation
	JOINT Spine
	{
		OFFSET 0.00000 1.70439 2.55658
		CHANNELS 3 Xrotation Yrotation Zrotation
		JOINT Spine1
		{
			OFFSET 0.00000 0.59193 3.35699
			CHANNELS 3 Xrotation Yrotation Zrotation
			JOINT Spine2
			{
				OFFSET 0.00000 0.29710 3.39581
				CHANNELS 3 Xrotation Yrotation Zrotation
				JOINT Spine3
				{
					OFFSET 0.00000 0.00000 3.40878
					CHANNELS 3 Xrotation Yrotation Zrotation
					JOINT Neck
					{
						OFFSET 0.00000 -1.27828 8.94804
						CHANNELS 3 Xrotation Yrotation Zrotation
						JOINT Head
						{
							OFFSET 0.00000 -0.81390 4.61586
							CHANNELS 3 Xrotation Yrotation Zrotation
							End Site
							{
								OFFSET 0.00000 0.00001 5.51796
							}
						}
					}
					JOINT RightShoulder
					{
						OFFSET -1.18875 -1.98124 6.41925
						CHANNELS 3 Xrotation Yrotation Zrotation
						JOINT RightArm
						{
							OFFSET -5.90412 0.00000 0.00000
							CHANNELS 3 Xrotation Yrotation Zrotation
							JOINT RightForeArm
							{
								OFFSET -11.94674 0.00000 0.00000
								CHANNELS 3 Xrotation Yrotation Zrotation
								JOINT RightHand
								{
									OFFSET -10.17720 0.00000 0.00000
									CHANNELS 3 Xrotation Yrotation Zrotation
									JOINT RightHandEnd
									{
										OFFSET -2.84518 0.00000 0.00000
										CHANNELS 3 Xrotation Yrotation Zrotation
										End Site
										{
											OFFSET -2.84518 0.00000 0.00000
										}
									}
									JOINT RightHandThumb1
									{
										OFFSET -1.13807 -1.89679 -0.75871
										CHANNELS 3 Yrotation Xrotation Zrotation
										End Site
										{
											OFFSET -2.74823 -0.73639 0.00000
										}
									}
								}
							}
						}
					}
					JOINT LeftShoulder
					{
						OFFSET 1.18875 -1.98124 6.41925
						CHANNELS 3 Xrotation Yrotation Zrotation
						JOINT LeftArm
						{
							OFFSET 5.90412 0.00000 0.00000
							CHANNELS 3 Xrotation Yrotation Zrotation
							JOINT LeftForeArm
							{
								OFFSET 11.94674 0.00000 0.00000
								CHANNELS 3 Xrotation Yrotation Zrotation
								JOINT LeftHand
								{
									OFFSET 10.17720 0.00000 0.00000
									CHANNELS 3 Xrotation Yrotation Zrotation
									JOINT LeftHandEnd
									{
										OFFSET 2.84518 0.00000 0.00000
										CHANNELS 3 Xrotation Yrotation Zrotation
										End Site
										{
											OFFSET 2.84518 0.00000 0.00000
										}
									}
									JOINT LeftHandThumb1
									{
										OFFSET 1.13807 -1.89679 -0.75871
										CHANNELS 3 Yrotation Xrotation Zrotation
										End Site
										{
											OFFSET 2.74823 -0.73639 0.00000
										}
									}
								}
							}
						}
					}
				}
			}
		}
	}
	JOINT RightUpLeg
	{
		OFFSET -3.52662 0.00000 -1.03025
		CHANNELS 3 Xrotation Yrotation Zrotation
		JOINT RightLeg
		{
			OFFSET 0.00001 0.00000 -17.80159
			CHANNELS 3 Xrotation Yrotation Zrotation
			JOINT RightFoot
			{
				OFFSET 0.00001 0.00000 -16.85992
				CHANNELS 3 Xrotation Yrotation Zrotation
				JOINT RightToeBase
				{
					OFFSET 0.00000 -5.42953 -1.97619
					CHANNELS 3 Xrotation Yrotation Zrotation
					End Site
					{
						OFFSET 0.00000 -2.85300 -0.00000
					}
				}
			}
		}
	}
	JOINT LeftUpLeg
	{
		OFFSET 3.52662 0.00000 -1.03025
		CHANNELS 3 Xrotation Yrotation Zrotation
		JOINT LeftLeg
		{
			OFFSET 0.00001 0.00000 -17.80159
			CHANNELS 3 Xrotation Yrotation Zrotation
			JOINT LeftFoot
			{
				OFFSET 0.00001 0.00000 -16.85992
				CHANNELS 3 Xrotation Yrotation Zrotation
				JOINT LeftToeBase
				{
					OFFSET 0.00000 -5.42953 -1.97619
					CHANNELS 3 Xrotation Yrotation Zrotation
					End Site
					{
						OFFSET 0.00000 -2.85300 -0.00000
					}
				}
			}
		}
	}
}
MOTION
Frames: 7
Frame Time: 0.008342
 13.8834 29.0287 36.9229 13.5989 0.9292 146.0095 -2.3330 5.9482 0.0501 -0.8148 -0.1098 -0.0067 0.7653 -2.6596 -0.5851 2.5206 -0.1823 0.9434 17.0449 2.4894 4.9516 9.2676 2.9508 16.0352 12.3851 -23.9082 1.3462 8.5021 -37.2960 31.2653 -0.0000 0.0001 68.7113 -24.6759 21.9416 3.5924 0.0000 0.0000 0.0000 -0.0000 0.0000 0.0000 8.1545 13.3505 -7.5378 18.0212 44.1971 -29.2145 -0.0001 -0.0001 -88.3389 -30.8109 -25.0633 -4.6901 -0.0000 -0.0000 0.0000 0.0000 0.0000 0.0000 -13.1758 22.6198 -20.8996 26.5808 0.0000 0.0000 -4.9787 -5.1141 -10.2878 -3.7138 0.0000 -0.0000 12.3657 10.2876 0.5394 19.2917 0.0000 0.0000 -16.9217 -1.5343 7.0446 -4.3880 0.0000 -0.0000
 13.9760 29.1693 36.9055 13.6419 1.0976 146.4413 -2.3160 5.9843 0.0562 -0.8052 -0.0942 -0.0027 0.7934 -2.6192 -0.5541 2.5259 -0.1737 0.9375 17.0045 2.4591 4.9218 9.2191 2.8984 15.9135 12.3838 -23.9069 1.3899 8.4983 -37.2511 31.2508 -0.0000 0.0001 68.6988 -24.8846 22.0076 3.7164 -0.0000 -0.0000 0.0000 0.0000 0.0000 0.0000 8.1394 13.4076 -7.5158 17.9953 44.2292 -29.1859 -0.0001 -0.0001 -88.3533 -30.7581 -25.0219 -4.6750 0.0000 -0.0000 -0.0000 -0.0000 0.0000 -0.0000 -13.2026 22.5444 -21.5897 24.7534 0.0000 0.0000 -4.0037 -5.8432 -8.0714 -3.4151 0.0000 -0.0000 12.7230 10.3093 0.3399 19.1007 0.0000 0.0000 -17.0076 -1.4542 6.7848 -4.4486 0.0000 -0.0000
 14.0742 29.3081 36.8884 13.6770 1.2319 146.8782 -2.2937 5.9953 0.0663 -0.7971 -0.0851 -0.0021 0.8354 -2.5769 -0.5186 2.5309 -0.1663 0.9299 16.9638 2.4289 4.8885 9.1673 2.8474 15.7922 12.3760 -23.9237 1.4347 8.4979 -37.1874 31.2341 -0.0000 0.0001 68.6864 -25.0996 22.0833 3.8477 0.0000 0.0000 -0.0000 0.0000 0.0000 -0.0000 8.1212 13.4601 -7.4941 17.9666 44.2634 -29.1567 -0.0001 -0.0001 -88.3642 -30.6669 -24.9717 -4.6572 0.0000 0.0000 0.0000 0.0000 0.0000 -0.0000 -13.1941 22.4261 -22.2565 23.0054 0.0000 0.0000 -3.0139 -6.7349 -5.7270 -3.1434 0.0000 -0.0000 13.0799 10.2816 0.1560 18.9418 0.0000 0.0000 -17.1088 -1.3610 6.5102 -4.5029 0.0000 -0.0000
 14.1769 29.4454 36.8709 13.7144 1.3558 147.3194 -2.2696 6.0008 0.0824 -0.7859 -0.0714 0.0014 0.8841 -2.5363 -0.4895 2.5361 -0.1629 0.9271 16.9203 2.3988 4.8489 9.1150 2.7966 15.6723 12.3659 -23.9503 1.4744 8.5016 -37.1125 31.2253 -0.0000 0.0001 68.6716 -25.3102 22.1675 3.9840 0.0000 -0.0000 -0.0000 -0.0000 -0.0000 -0.0000 8.1040 13.5016 -7.4762 17.9325 44.3060 -29.1285 -0.0001 -0.0001 -88.3726 -30.5406 -24.9118 -4.6383 0.0000 0.0000 -0.0000 0.0000 0.0000 0.0000 -13.1741 22.3002 -22.8775 21.3812 0.0000 0.0000 -2.0236 -7.7831 -3.3164 -2.9214 0.0000 -0.0000 13.4321 10.2350 -0.0338 18.8116 0.0000 0.0000 -17.2172 -1.2614 6.2419 -4.5500 0.0000 -0.0000
 14.2846 29.5811 36.8529 13.7513 1.4658 147.7702 -2.2431 6.0032 0.1026 -0.7755 -0.0594 0.0041 0.9421 -2.4988 -0.4645 2.5422 -0.1609 0.9259 16.8723 2.3657 4.8045 9.0637 2.7468 15.5531 12.3546 -23.9820 1.5105 8.5076 -37.0377 31.2225 -0.0000 0.0001 68.6560 -25.5037 22.2550 4.1182 0.0000 -0.0000 0.0000 -0.0000 0.0000 0.0000 8.0856 13.5289 -7.4588 17.8970 44.3569 -29.1039 -0.0001 -0.0001 -88.3793 -30.3833 -24.8408 -4.6180 -0.0000 0.0000 -0.0000 -0.0000 -0.0000 0.0000 -13.1452 22.1630 -23.4276 19.9051 0.0000 0.0000 -1.0415 -8.9649 -0.9257 -2.7729 0.0000 -0.0000 13.7757 10.1623 -0.2253 18.7185 0.0000 0.0000 -17.3377 -1.1572 5.9780 -4.5890 0.0000 -0.0000
 14.3973 29.7155 36.8342 13.7865 1.5655 148.2346 -2.2165 6.0088 0.1269 -0.7663 -0.0509 0.0068 1.0097 -2.4667 -0.4442 2.5464 -0.1616 0.9244 16.8205 2.3310 4.7535 9.0141 2.6955 15.4340 12.3384 -24.0181 1.5386 8.5193 -36.9624 31.2240 -0.0000 0.0001 68.6436 -25.6732 22.3420 4.2425 -0.0000 0.0000 -0.0000 0.0000 -0.0000 0.0000 8.0729 13.5416 -7.4452 17.8547 44.4162 -29.0825 -0.0001 -0.0001 -88.3845 -30.2051 -24.7571 -4.5999 -0.0000 0.0000 -0.0000 -0.0000 -0.0000 0.0000 -13.1173 22.0226 -23.8827 18.6091 0.0000 0.0000 -0.0840 -10.2405 1.3671 -2.7194 0.0000 -0.0000 14.1048 10.0657 -0.4218 18.6685 0.0000 0.0000 -17.4720 -1.0514 5.7237 -4.6217 0.0000 -0.0000
 14.5145 29.8488 36.8145 13.8211 1.6666 148.7146 -2.1928 6.0237 0.1548 -0.7571 -0.0402 0.0097 1.0815 -2.4402 -0.4318 2.5516 -0.1653 0.9255 16.7619 2.2922 4.6955 8.9683 2.6437 15.3132 12.3183 -24.0541 1.5538 8.5372 -36.8942 31.2361 -0.0000 0.0001 68.6326 -25.8139 22.4243 4.3558 0.0000 -0.0000 0.0000 -0.0000 0.0000 0.0000 8.0596 13.5366 -7.4323 17.8137 44.4860 -29.0693 -0.0001 -0.0001 -88.3878 -30.0124 -24.6594 -4.5829 -0.0000 0.0000 0.0000 -0.0000 0.0000 -0.0000 -13.1067 21.8959 -24.2038 17.5299 0.0000 0.0000 0.8199 -11.5587 3.4810 -2.7747 0.0000 -0.0000 14.4139 9.9567 -0.6291 18.6613 0.0000 0.0000 -17.6161 -0.9464 5.4868 -4.6540 0.0000 -0.0000
